<svg width="25" height="35" viewBox="0 0 25 35" fill="none" xmlns="http://www.w3.org/2000/svg">
<path d="M24 8.82196C24 8.98833 23.9807 9.15411 23.9714 9.32022C23.9645 13.6675 23.9584 18.0151 23.9529 22.3632C23.9506 23.6255 23.9549 24.8877 23.9154 26.1499C23.9248 26.4635 23.8574 26.7748 23.7189 27.0574C23.5803 27.3401 23.3747 27.5858 23.1193 27.774C22.9171 27.901 22.6976 27.9991 22.4673 28.0653C22.2767 28.13 22.2438 28.0899 22.2448 27.8892C22.2504 26.4629 22.2602 25.0369 22.2619 23.6109C22.2672 18.4077 22.2701 13.2046 22.2708 8.00168C22.2708 6.98639 21.7413 6.24782 20.9317 5.67141C20.5647 5.43241 20.1611 5.25287 19.7362 5.13965C18.0518 4.61189 16.3679 4.08218 14.6845 3.55054C13.9447 3.31848 13.2055 3.08514 12.4611 2.8683C11.87 2.65005 11.2278 2.60166 10.6097 2.72879C10.2762 2.82374 9.95454 2.95498 9.65064 3.12009C8.11601 3.9318 6.58862 4.75743 5.05959 5.57982C4.64572 5.80216 4.22197 6.00995 3.82325 6.25657C3.54501 6.40759 3.30281 6.61531 3.11287 6.86582C2.92293 7.11633 2.78963 7.40384 2.72191 7.70909C2.70856 7.7817 2.70228 7.8554 2.70315 7.92918V27.6588C2.69199 27.9985 2.78168 28.3341 2.96128 28.6245C3.08547 28.8182 3.27738 28.9606 3.50092 29.0249C5.36249 29.5969 7.22385 30.1698 9.08499 30.7435C10.4645 31.1684 11.8395 31.6089 13.2273 32.0057C14.2146 32.1842 15.2338 31.975 16.0661 31.4231C16.3349 31.2217 16.554 30.9634 16.7073 30.6672C16.8605 30.3711 16.9438 30.0448 16.9511 29.7127C16.9896 28.2614 16.9817 26.8089 16.9893 25.3567C16.9936 24.5061 16.9735 23.6553 16.9959 22.8053C17.0069 22.3031 16.9155 21.8037 16.7269 21.3367C16.5383 20.8698 16.2564 20.4447 15.8978 20.0867C15.5588 19.726 15.1828 19.4013 14.7761 19.1175C14.6272 19.0136 14.6556 18.7814 14.8264 18.7199C15.4048 18.5363 15.9404 18.2418 16.4022 17.8535C16.5891 17.6977 16.7389 17.5033 16.8409 17.2842C16.9428 17.0652 16.9945 16.8267 16.9922 16.5858C16.9876 14.9588 16.9923 13.3318 16.9899 11.7049C17.0168 11.2224 16.8733 10.7457 16.5837 10.3553C16.2941 9.96496 15.8762 9.68494 15.4007 9.56263C14.0626 9.14675 12.7209 8.74348 11.3802 8.33568C10.1934 7.9747 9.00619 7.61449 7.81869 7.25502C7.66267 7.20779 7.59557 7.02221 7.69162 6.89049C8.08664 6.34875 8.572 5.96017 9.27497 5.8478C9.6439 5.80968 10.0167 5.8601 10.3615 5.99473C11.8553 6.46758 13.3501 6.93785 14.8393 7.42138C15.454 7.62075 16.072 7.82043 16.6633 8.07611C17.2349 8.32696 17.7402 8.70343 18.1403 9.17652C18.5492 9.6254 18.7753 10.2068 18.7751 10.8093C18.7695 12.1039 18.7725 13.3985 18.7669 14.6931C18.7626 15.644 18.734 16.5949 18.7471 17.5451C18.7571 17.8498 18.6848 18.1517 18.5375 18.42C18.3903 18.6883 18.1734 18.9135 17.9089 19.0727C17.8841 19.0895 17.8591 19.1059 17.8329 19.123C17.7689 19.1646 17.7606 19.2583 17.821 19.3051C18.0738 19.4988 18.2828 19.7421 18.4348 20.0196C18.5868 20.297 18.6785 20.6024 18.704 20.9165C18.7291 21.179 18.7401 21.4426 18.7369 21.7062C18.7389 24.3737 18.7452 27.0413 18.7333 29.7091C18.7483 30.5202 18.5665 31.3231 18.2029 32.0513C17.9691 32.5051 17.6347 32.9016 17.2245 33.2116C16.8142 33.5216 16.3385 33.7373 15.8323 33.8427C15.0972 34.0291 14.3287 34.0501 13.5842 33.9042C13.0595 33.7759 12.5418 33.6213 12.0331 33.4411C10.5012 32.9645 8.96975 32.4866 7.43874 32.0076C6.24423 31.6342 5.05015 31.2596 3.85651 30.8839C3.50454 30.7732 3.15455 30.6574 2.80028 30.5525C2.43837 30.4472 2.10747 30.2581 1.83543 30.0009C1.56338 29.7437 1.35815 29.4261 1.237 29.0747C1.07303 28.6268 0.996188 28.1525 1.01047 27.6766C1.00586 26.6623 1.00718 25.648 1.00718 24.6343V10.944C1.00718 9.8824 0.980181 8.81921 1.03089 7.75958C1.04777 7.16149 1.21949 6.5775 1.52984 6.06278C1.84019 5.54807 2.27891 5.11963 2.80456 4.81795C3.54965 4.36484 4.35203 4.00106 5.13465 3.60653C6.52244 2.90551 7.91418 2.21193 9.30361 1.51414C10.0847 1.07811 10.9921 0.912501 11.8803 1.04388C12.2251 1.1179 12.5647 1.21401 12.8967 1.33161C14.0244 1.68503 15.1498 2.04687 16.2778 2.39964C17.2474 2.7029 18.2204 2.99807 19.191 3.2968C19.8966 3.51364 20.6173 3.6923 21.3041 3.95608C21.8954 4.15775 22.43 4.49374 22.8643 4.93672C23.2986 5.3797 23.6205 5.91717 23.8038 6.50545C23.873 6.7811 23.9247 7.06074 23.9585 7.34273C23.9841 7.48582 24 7.6305 24 7.77586V8.82196Z" fill="url(#paint0_linear_29_2752)" stroke="#FF6F21" stroke-linecap="round"/>
<defs>
<linearGradient id="paint0_linear_29_2752" x1="1" y1="17.1765" x2="24" y2="17.1765" gradientUnits="userSpaceOnUse">
<stop stop-color="#FF6F21"/>
<stop offset="1" stop-color="#FF6F21"/>
</linearGradient>
</defs>
</svg>
